HIERARCHY
ROOT Hips
{
 OFFSET 0.000000 0.000000 0.000000
 CHANNELS 6 Xposition Yposition Zposition Yrotation Xrotation Zrotation
 JOINT Chest
 {
  OFFSET 0.000000 9.585900 0.002600
  CHANNELS 3 Yrotation Xrotation Zrotation
  JOINT Chest2
  {
   OFFSET 0.000000 9.601200 -0.005300
   CHANNELS 3 Yrotation Xrotation Zrotation
   JOINT Chest3
   {
    OFFSET 0.000000 9.561800 0.000000
    CHANNELS 3 Yrotation Xrotation Zrotation
    JOINT Chest4
    {
     OFFSET 0.000000 9.552100 0.000000
     CHANNELS 3 Yrotation Xrotation Zrotation
     JOINT Neck
     {
      OFFSET 0.000000 14.453000 0.000000
      CHANNELS 3 Yrotation Xrotation Zrotation
      JOINT Head
      {
       OFFSET 0.000000 8.936500 -0.011300
       CHANNELS 3 Yrotation Xrotation Zrotation
       End Site
       {
        OFFSET 0.000000 17.073600 -0.006000
       }
      }
     }
     JOINT RightCollar
     {
      OFFSET -2.921100 9.558500 0.000000
      CHANNELS 3 Yrotation Xrotation Zrotation
      JOINT RightShoulder
      {
       OFFSET -13.519700 0.000000 0.000000
       CHANNELS 3 Yrotation Xrotation Zrotation
       JOINT RightElbow
       {
        OFFSET 0.000000 -29.696600 0.000000
        CHANNELS 3 Yrotation Xrotation Zrotation
        JOINT RightWrist
        {
         OFFSET 0.000000 -24.004700 0.000000
         CHANNELS 3 Yrotation Xrotation Zrotation
         End Site
         {
          OFFSET 0.000000 -17.728500 0.000000
         }
        }
       }
      }
     }
     JOINT LeftCollar
     {
      OFFSET 2.921100 9.558500 0.000000
      CHANNELS 3 Yrotation Xrotation Zrotation
      JOINT LeftShoulder
      {
       OFFSET 13.519700 0.000000 0.000000
       CHANNELS 3 Yrotation Xrotation Zrotation
       JOINT LeftElbow
       {
        OFFSET 0.000000 -29.696600 0.000000
        CHANNELS 3 Yrotation Xrotation Zrotation
        JOINT LeftWrist
        {
         OFFSET 0.000000 -24.004700 0.000000
         CHANNELS 3 Yrotation Xrotation Zrotation
         End Site
         {
          OFFSET 0.000000 -17.728500 0.000000
         }
        }
       }
      }
     }
    }
   }
  }
 }
 JOINT RightHip
 {
  OFFSET -7.771700 -0.012900 -0.001300
  CHANNELS 3 Yrotation Xrotation Zrotation
  JOINT RightKnee
  {
   OFFSET 0.000000 -40.869800 0.001200
   CHANNELS 3 Yrotation Xrotation Zrotation
   JOINT RightAnkle
   {
    OFFSET 0.000000 -39.717900 0.002100
    CHANNELS 3 Yrotation Xrotation Zrotation
    JOINT RightToe
    {
     OFFSET 0.000000 -4.965400 11.033500
     CHANNELS 3 Yrotation Xrotation Zrotation
     End Site
     {
      OFFSET 0.000000 -1.423100 5.872300
     }
    }
   }
  }
 }
 JOINT LeftHip
 {
  OFFSET 7.771700 -0.012900 -0.001300
  CHANNELS 3 Yrotation Xrotation Zrotation
  JOINT LeftKnee
  {
   OFFSET 0.000000 -40.869800 0.001200
   CHANNELS 3 Yrotation Xrotation Zrotation
   JOINT LeftAnkle
   {
    OFFSET 0.000000 -39.717900 0.002100
    CHANNELS 3 Yrotation Xrotation Zrotation
    JOINT LeftToe
    {
     OFFSET 0.000000 -4.965400 11.033500
     CHANNELS 3 Yrotation Xrotation Zrotation
     End Site
     {
      OFFSET 0.000000 -1.423100 5.872300
     }
    }
   }
  }
 }
}
MOTION
Frames: 12
Frame Time: 0.008333
0.000000 85.388000 0.000000 0.000000 -5.767877 0.000000 0.000000 11.653817 0.000000 0.000000 -5.885947 0.000000 0.000000 -0.000000 0.000000 0.000000 -0.000000 0.000000 0.000000 12.528835 0.000000 0.000000 0.711642 0.000000 0.000000 -0.000000 0.000000 0.000000 0.000000 -90.000000 0.000000 -2.309062 0.000000 0.000000 2.309062 0.000000 0.000000 -0.000000 0.000000 0.000000 -0.000000 90.000000 0.000000 -2.309062 0.000000 0.000000 2.309062 0.000000 0.000000 8.520406 0.000000 0.000000 1.905762 0.000000 -0.000000 -4.658285 0.000000 0.000000 -0.000000 0.000000 0.000000 8.520406 0.000000 0.000000 1.905762 0.000000 -0.000000 -4.658285 0.000000 0.000000 -0.000000 0.000000
-14.079500 55.309674 -30.089419 -179.067482 -16.857558 -1.839656 1.160210 16.681163 0.146063 0.094525 1.705371 0.002701 0.192435 2.854740 0.018923 1.022835 14.730088 0.205980 1.194362 6.534160 2.041918 0.776168 -18.811865 1.968678 0.187403 -0.727988 2.961900 1.787270 -9.565810 -9.756739 -81.082636 -59.570180 112.080636 -14.762483 -3.597002 -1.365586 -8.530323 -3.195862 1.702532 6.797112 -17.775655 12.754742 67.610258 -60.647471 -104.067800 4.746756 -11.949375 6.514454 -0.309372 -57.852938 12.126746 -113.477858 88.777321 -118.045631 -10.652482 -22.898669 13.700083 0.017834 0.020543 -0.048901 9.403824 -54.813109 -5.679742 114.162715 77.583563 111.855923 -6.975319 -23.542865 1.035012 0.015641 0.133225 0.013110
-14.082034 55.307992 -30.087367 -179.077360 -16.791342 -1.842248 1.179523 16.616221 0.157066 0.106098 1.701830 0.008667 0.195216 2.843078 0.021967 1.078913 14.664409 0.244533 1.235660 6.498214 1.893644 0.894695 -18.885699 1.799548 0.131046 -0.833538 2.961116 1.700112 -9.671715 -9.854203 -81.787182 -59.631239 112.754832 -14.801051 -3.666849 -1.360457 -8.627746 -3.311205 1.739839 6.897761 -17.927646 12.842913 68.021103 -60.548168 -104.441381 4.759347 -12.080748 6.643669 -0.286450 -57.922612 12.105665 -113.595902 88.788138 -118.148243 -10.664807 -22.911772 13.725066 0.018833 0.022319 -0.054597 9.423833 -54.878602 -5.706924 114.158970 77.575707 111.859537 -6.973361 -23.549277 1.043027 0.013042 0.138448 0.002761
-14.086504 55.307667 -30.090755 -179.082912 -16.750657 -1.840177 1.194145 16.575961 0.162186 0.140428 1.686694 0.023035 0.176121 2.838828 0.016517 1.114106 14.617299 0.269998 1.296839 6.448178 1.756834 1.009831 -18.954064 1.634194 0.089766 -0.951712 2.969836 1.619063 -9.772664 -9.941210 -82.509365 -59.676129 113.444780 -14.838411 -3.728895 -1.356561 -8.704311 -3.437739 1.780053 7.005718 -18.068122 12.923683 68.464888 -60.454682 -104.850435 4.770189 -12.233391 6.763634 -0.274948 -57.962774 12.104416 -113.425796 88.772058 -117.964271 -10.771606 -22.919591 13.772591 0.016597 0.026774 -0.056592 9.443186 -54.916888 -5.739586 114.153532 77.566524 111.861658 -6.964850 -23.550818 1.045953 0.004721 0.137846 -0.004090
-14.089677 55.308054 -30.097079 -179.097090 -16.722681 -1.848184 1.229868 16.549023 0.186926 0.132618 1.680364 0.020570 0.211092 2.802349 0.032743 1.117261 14.598979 0.280149 1.370807 6.389073 1.629517 1.123880 -19.019287 1.475275 0.056712 -1.073708 2.982887 1.537613 -9.867242 -10.021894 -83.254834 -59.705038 114.163381 -14.873948 -3.790636 -1.354660 -8.768714 -3.566120 1.819735 7.122523 -18.195549 12.990810 68.942929 -60.370888 -105.296612 4.783782 -12.421921 6.877405 -0.249927 -57.991588 12.103493 -113.033618 88.755597 -117.535858 -10.886002 -22.926362 13.816505 0.012424 0.030130 -0.058221 9.452272 -54.945389 -5.751487 114.216759 77.563786 111.944485 -6.946563 -23.562845 1.037220 0.007123 0.135478 -0.006856
-14.095183 55.307888 -30.102395 -179.101981 -16.685019 -1.848292 1.267366 16.505888 0.210196 0.111626 1.679926 0.012571 0.234337 2.772294 0.044633 1.105966 14.603505 0.279889 1.473739 6.297847 1.516513 1.238407 -19.081978 1.322965 0.050946 -1.218590 3.002343 1.452707 -9.956693 -10.097792 -84.029690 -59.724407 114.916688 -14.912636 -3.863854 -1.358475 -8.802662 -3.714033 1.870222 7.246554 -18.307772 13.034906 69.465181 -60.299207 -105.789120 4.801990 -12.653016 6.998551 -0.178194 -58.035919 12.036932 -113.260506 88.747932 -117.712375 -10.934097 -22.938814 13.835821 0.007910 0.025586 -0.050887 9.468311 -54.981569 -5.784691 114.226232 77.551091 111.963763 -6.931703 -23.566479 1.038773 0.001182 0.131817 -0.014919
-14.099625 55.307557 -30.107576 -179.107883 -16.645590 -1.856528 1.286073 16.463616 0.227617 0.125077 1.667805 0.018966 0.236158 2.755682 0.049114 1.103493 14.601213 0.281153 1.576777 6.207621 1.410752 1.354464 -19.142984 1.175153 0.046388 -1.353988 3.022186 1.364759 -10.039054 -10.171272 -84.846207 -59.739888 115.714438 -14.953921 -3.961093 -1.366755 -8.831736 -3.851008 1.921739 7.375601 -18.401248 13.052906 70.041089 -60.233711 -106.332742 4.826237 -12.929816 7.141377 -0.150700 -58.075177 12.012684 -113.508930 88.751688 -117.947902 -10.915333 -22.957335 13.867519 0.033154 0.021876 -0.058508 9.470378 -55.021535 -5.792453 114.254065 77.544919 111.998134 -6.928189 -23.570048 1.042353 0.006943 0.126517 -0.021017
-14.103773 55.306929 -30.112150 -179.113789 -16.603237 -1.866969 1.316535 16.413572 0.257243 0.126831 1.658132 0.020785 0.230360 2.749677 0.047848 1.134464 14.553802 0.303781 1.653889 6.156802 1.301097 1.473158 -19.203052 1.030003 0.017071 -1.443480 3.031781 1.274363 -10.110800 -10.244545 -85.720591 -59.755977 116.575195 -14.991478 -4.083911 -1.378002 -8.878687 -3.946009 1.955927 7.507635 -18.473268 13.047149 70.667371 -60.160806 -106.923038 4.851704 -13.250814 7.315597 -0.125546 -58.117919 11.985946 -113.960791 88.763272 -118.395413 -10.831327 -22.977305 13.883903 -0.006344 0.013237 -0.078097 9.469662 -55.065312 -5.797029 114.270047 77.538366 112.021721 -6.927472 -23.571419 1.044526 0.011786 0.124929 -0.022761
-14.111481 55.306168 -30.116972 -179.113028 -16.564553 -1.856902 1.340290 16.366974 0.274974 0.129762 1.641683 0.024350 0.203763 2.766929 0.027773 1.205994 14.445643 0.365029 1.700353 6.155122 1.176350 1.595601 -19.260797 0.886505 -0.038607 -1.479091 3.018452 1.178517 -10.169187 -10.316557 -86.659783 -59.780663 117.507900 -15.023492 -4.226262 -1.395479 -8.944029 -3.991961 1.957100 7.640206 -18.522593 13.018009 71.343199 -60.071242 -107.556876 4.877873 -13.610728 7.523328 -0.080340 -58.160000 11.941940 -114.390122 88.763359 -118.810728 -10.859715 -22.987943 13.906830 0.061008 0.018421 -0.074352 9.483130 -55.103202 -5.853293 114.230566 77.508720 111.983694 -6.899432 -23.564902 1.042342 -0.018546 0.125025 -0.027185
-14.117968 55.305931 -30.123721 -179.107136 -16.540814 -1.852999 1.335544 16.342488 0.273161 0.130108 1.639350 0.024914 0.218027 2.741717 0.043641 1.225173 14.393839 0.397945 1.777854 6.122573 1.062768 1.721635 -19.315766 0.746341 -0.059536 -1.542108 3.009203 1.075269 -10.213308 -10.383154 -87.661443 -59.819617 118.508979 -15.051344 -4.386001 -1.418702 -8.971179 -4.059467 1.967594 7.772409 -18.551565 12.961527 72.069714 -59.959611 -108.232956 4.908872 -13.995845 7.757281 -0.066568 -58.183260 11.932385 -114.514091 88.748391 -118.919849 -10.934860 -22.994263 13.929988 0.014289 0.003867 -0.051163 9.477771 -55.128035 -5.884408 114.216240 77.487492 111.968810 -6.880674 -23.557351 1.035419 -0.031951 0.118837 -0.028634
-14.120137 55.304865 -30.127682 -179.117033 -16.503760 -1.865873 1.356397 16.300641 0.306336 0.131019 1.629917 0.027196 0.230686 2.700349 0.065955 1.212202 14.402744 0.389676 1.876815 6.060145 0.970790 1.849230 -19.370373 0.613278 -0.062004 -1.631289 3.015077 0.972580 -10.242823 -10.443305 -88.723652 -59.871129 119.573856 -15.077665 -4.560869 -1.442829 -8.976339 -4.143316 2.000941 7.909319 -18.564341 12.873804 72.838893 -59.818265 -108.950992 4.941835 -14.389999 8.008252 -0.042100 -58.223195 11.930929 -114.434117 88.745954 -118.824067 -10.906864 -23.002588 13.935357 0.013738 -0.002205 -0.045725 9.458197 -55.170563 -5.876841 114.243384 77.476766 112.008063 -6.870109 -23.561060 1.016721 -0.024566 0.118838 -0.024386
-14.121896 55.302144 -30.126352 -179.120438 -16.437593 -1.877016 1.375817 16.226145 0.343228 0.134038 1.612664 0.034477 0.216555 2.712806 0.046657 1.210302 14.400510 0.390654 1.990685 5.970338 0.901926 1.976657 -19.426110 0.490046 -0.056175 -1.742740 3.038585 0.878752 -10.258188 -10.497578 -89.846265 -59.932869 120.695229 -15.103261 -4.745340 -1.463575 -8.975559 -4.188738 2.023778 8.053258 -18.618479 12.781204 73.649257 -59.647405 -109.718766 4.976090 -14.786780 8.274598 -0.021072 -58.294816 11.914288 -114.701729 88.752167 -119.085047 -10.811339 -23.012494 13.923992 0.026224 -0.010646 -0.040054 9.438276 -55.241589 -5.878323 114.232258 77.465155 111.997146 -6.856721 -23.563202 1.006323 -0.027113 0.124221 -0.025755
